{"accessors" : [{"bufferView" : 0, "byteOffset" : 0, "componentType" : 5123, "count" : 8793, "type" : "SCALAR", "max" : [8792], "min" : [0]}, {"bufferView" : 1, "byteOffset" : 0, "componentType" : 5126, "count" : 8793, "type" : "VEC3", "max" : [0.5302374362945557, 0.627200186252594, 1.0252265930175781], "min" : [-0.5302363038063049, -0.43784794211387634, 0.14695657789707184]}, {"bufferView" : 1, "byteOffset" : 12, "componentType" : 5126, "count" : 8793, "type" : "VEC3", "max" : [0.9999775290489197, 0.9996245503425598, 1.0000044107437134], "min" : [-0.9999775290489197, -0.9999960660934448, -0.9996160268783569]}, {"bufferView" : 1, "byteOffset" : 24, "componentType" : 5126, "count" : 8793, "type" : "VEC4", "max" : [1, 1, 1, 1], "min" : [1, 1, 1, 1]}, {"bufferView" : 1, "byteOffset" : 40, "componentType" : 5126, "count" : 8793, "type" : "VEC2", "max" : [0.9800453782081604, -0.013025478459894657], "min" : [0.013319706544280052, -0.992042601108551]}, {"bufferView" : 1, "byteOffset" : 48, "componentType" : 5126, "count" : 8793, "type" : "VEC2", "max" : [0.9989989995956421, -0], "min" : [0, -0.9989989995956421]}, {"bufferView" : 1, "byteOffset" : 56, "componentType" : 5126, "count" : 8793, "type" : "VEC2", "max" : [0.9989989995956421, -0], "min" : [0, -0.9989989995956421]}], "asset" : {"generator" : "Aspose.3D 20.11", "version" : "2.0"}, "buffers" : [{"uri" : "buffer.bin", "byteLength" : 580348}], "bufferViews" : [{"buffer" : 0, "byteOffset" : 0, "byteLength" : 17588, "target" : 34963}, {"buffer" : 0, "byteOffset" : 17592, "byteLength" : 562752, "byteStride" : 64, "target" : 34962}], "materials" : [{"pbrMetallicRoughness" : {"baseColorFactor" : [0, 0, 0, 1], "metallicFactor" : 0, "roughnessFactor" : 0}, "emissiveFactor" : [0, 0, 0], "alphaMode" : "OPAQUE", "doubleSided" : false}], "meshes" : [{"primitives" : [{"attributes" : {"POSITION" : 1, "NORMAL" : 2, "COLOR" : 3, "TEXCOORD_0" : 4, "TEXCOORD_1" : 5, "TEXCOORD_2" : 6}, "indices" : 0, "material" : 0, "mode" : 4}]}], "nodes" : [{"matrix" : [100, 0, 0, 0, 0, -1.6292067961387602E-05, -99.99999999999868, 0, 0, 99.99999999999868, -1.6292067961387602E-05, 0, -7.429245478356161E-13, 4.031830787658691, -3.725290298461914E-07, 1], "mesh" : 0, "name" : "BaseMesh"}], "scene" : 0, "scenes" : [{"nodes" : [0]}]}